<?xml version="1.0" standalone="no"?>
<!DOCTYPE svg PUBLIC "-//W3C//DTD SVG 20010904//EN"
 "http://www.w3.org/TR/2001/REC-SVG-20010904/DTD/svg10.dtd">
<svg version="1.0" xmlns="http://www.w3.org/2000/svg"
 width="260.000000pt" height="260.000000pt" viewBox="0 0 260.000000 260.000000"
 preserveAspectRatio="xMidYMid meet">
<metadata>
Created by potrace 1.11, written by Peter Selinger 2001-2013
</metadata>
<g transform="translate(0.000000,260.000000) scale(0.100000,-0.100000)"
fill="#000000" stroke="none">
<path d="M0 1300 l0 -1300 1300 0 1300 0 0 1300 0 1300 -1300 0 -1300 0 0
-1300z m1395 1015 c33 -8 98 -34 145 -57 69 -34 102 -58 175 -132 153 -153
219 -274 287 -521 19 -70 22 -105 22 -290 0 -227 -8 -280 -71 -450 -103 -282
-310 -488 -549 -549 -78 -20 -210 -20 -293 -1 -141 34 -302 144 -403 276 -263
345 -303 901 -92 1296 82 155 216 298 343 366 131 71 304 95 436 62z"/>
<path d="M1142 1799 c-116 -46 -218 -179 -258 -339 -22 -87 -15 -271 14 -350
47 -131 130 -232 230 -278 46 -22 71 -27 132 -27 95 1 153 27 230 105 105 105
151 230 152 405 0 91 -5 124 -26 190 -41 129 -121 232 -221 283 -70 35 -179
41 -253 11z m58 -473 c0 -81 4 -126 12 -134 9 -9 2 -12 -32 -12 -34 0 -41 3
-32 12 15 15 17 232 2 223 -5 -3 -10 -2 -10 4 0 13 41 41 52 35 4 -3 8 -60 8
-128z m165 117 c26 -26 35 -59 35 -131 0 -49 -5 -76 -20 -99 -60 -100 -145 37
-106 171 21 72 56 95 91 59z"/>
<path d="M1319 1424 c-18 -22 -24 -159 -10 -197 7 -19 17 -27 28 -25 23 4 36
81 27 160 -7 65 -24 88 -45 62z"/>
</g>
</svg>
